<svg width="20" height="20" viewBox="0 0 20 20" fill="none" xmlns="http://www.w3.org/2000/svg">
<path d="M11.8609 5.78746C11.8505 6.39072 11.8587 6.99344 11.8587 7.61792C11.9446 7.62173 12.0159 7.62825 12.0877 7.62825C12.7932 7.6288 13.4993 7.62771 14.2054 7.6288C14.6329 7.62989 14.7385 7.73487 14.739 8.15482C14.7401 8.96261 14.7406 9.77041 14.739 10.5782C14.7379 10.9525 14.6449 11.0471 14.2685 11.0487C13.5488 11.052 12.8297 11.0498 12.11 11.0498H11.8598V17.6765C11.8598 18.2754 11.801 18.333 11.1923 18.333C10.4183 18.333 9.64474 18.3336 8.87121 18.3325C8.44148 18.3319 8.34193 18.2335 8.34139 17.807C8.34084 15.6556 8.34139 13.5037 8.34139 11.3517V11.0874C8.2587 11.0825 8.18744 11.0748 8.11618 11.0748C7.52598 11.0738 6.93523 11.0754 6.34502 11.0738C5.93541 11.0721 5.83641 10.9769 5.83532 10.5711C5.83206 9.77694 5.8326 8.98274 5.83478 8.18854C5.83586 7.76642 5.93269 7.67177 6.34992 7.67123C6.93359 7.67069 7.51727 7.67123 8.10095 7.67123H8.34139C8.34139 7.57059 8.3403 7.49118 8.34139 7.41176C8.35553 6.63823 8.32779 5.86144 8.39306 5.09281C8.55843 3.15791 10.0462 1.75719 11.9903 1.6843C12.8036 1.65384 13.6184 1.67124 14.4333 1.67342C14.7026 1.67451 14.8179 1.79092 14.8195 2.06181C14.8239 2.86961 14.8239 3.6774 14.8195 4.4852C14.8179 4.7599 14.7047 4.8687 14.4099 4.87577C13.8605 4.88882 13.3106 4.88937 12.7611 4.89753C12.1236 4.90732 11.8723 5.1483 11.8609 5.78746Z" fill="white"/>
</svg>
