<svg width="524" height="379" viewBox="0 0 524 379" fill="none" xmlns="http://www.w3.org/2000/svg">
<path d="M307.762 277.509C172.72 388.795 17.7251 397.795 10.2407 295.701C8.79799 275.082 13.8501 250.915 25.1469 225.592C74.923 112.8 228.996 4.30027 338.907 5.0034C364.496 5.16486 385.991 11.3836 401.267 23.2221C406.329 27.1753 410.715 31.7274 414.371 36.8159C387.678 1.99298 323.824 -2.56431 252.131 25.2274C121.663 75.743 7.19382 206.102 15.2667 295.805C25.0272 394.222 175.069 384.259 307.762 277.509Z" fill="#EAB308"/>
<path d="M297.488 285.348C162.571 401.877 7.71799 411.301 0.240478 304.397C-1.20091 282.806 3.84654 257.501 15.1331 230.985C64.8634 112.879 218.795 -0.732693 328.606 0.00355905C354.171 0.172623 375.646 6.68437 390.908 19.0807C395.966 23.22 400.347 27.9866 404 33.3149C377.332 -3.14869 313.536 -7.9207 241.909 21.1804C111.56 74.076 -2.8036 210.577 5.26191 304.507C15.0134 407.56 164.917 397.127 297.488 285.348Z" fill="#EAB308"/>
<path d="M136.48 342.91C53.4541 342.842 74.2136 272.155 131.5 185.056C183.496 106 297.5 37 335.923 38C385 38 420.923 52.7795 422.756 91.6545C424.975 43.4774 394.496 11.5399 335.923 11.4879C244.47 11.4097 119.183 89.1233 56.0947 185.056C-7.00949 280.988 15.9801 358.821 107.433 358.899C166.006 358.946 238.459 327.082 299.558 278.967C246.621 317.8 186.074 342.962 136.48 342.92V342.91Z" fill="#EAB308"/>
<path d="M505.667 220.844C505.667 220.844 476.172 188.568 349.938 257.885C349.938 257.885 452.094 206.114 505.667 220.844Z" fill="#0D1017"/>
<path d="M300.922 242.938L340.396 263.083L338.443 262L300.052 238.391L284.438 246.839L299.401 267.417L289.859 248.568L300.922 242.938Z" fill="#0D1017"/>
<path d="M327.38 270.016C327.38 270.016 310.031 267.198 300.052 276.078C300.052 275.864 314.583 276.948 327.38 270.016Z" fill="#0D1017"/>
<path d="M449.927 214.344L458.817 212.828C458.817 212.828 428.021 193.115 403.942 189.433C403.942 189.433 376.401 192.901 372.927 197.448L402.64 192.683C402.64 192.683 425.635 198.532 449.927 214.344Z" fill="#0D1017"/>
<path d="M490.052 225.391C488.531 225.823 487.229 226.261 485.932 226.693C485.281 226.906 483.328 227.344 483.109 227.99C483.109 228.209 483.109 228.641 483.109 228.86C483.328 230.375 483.979 233.188 485.281 234.058C485.495 234.058 485.495 234.271 485.714 234.271C486.365 234.49 487.016 234.49 487.88 234.271C492.656 233.839 497.427 231.891 501.979 230.375C502.198 230.375 502.63 230.156 502.849 229.943C504.583 228.209 500.245 224.959 498.943 224.526C495.906 223.662 492.656 224.74 490.052 225.391Z" fill="#0D1017"/>
<path d="M430.406 266.547C365.989 279.328 300.271 284.526 300.271 284.526C357.531 280.63 395.052 276.51 426.067 272.182C427.583 270.229 429.104 268.281 430.406 266.547Z" fill="#0D1017"/>
<path d="M509.786 228.859C523.021 238.604 511.307 244.672 511.307 244.672C495.041 251.818 478.557 258.318 455.349 263.516C453.614 265.682 451.88 267.849 449.927 270.229C511.739 260.484 516.078 251.385 516.078 251.385C535.599 237.307 509.786 228.859 509.786 228.859Z" fill="#0D1017"/>
<path d="M449.276 246.187C442.984 258.099 396.786 315.068 390.063 319.187C383.339 323.302 374.661 321.568 374.448 320.484C374.229 319.401 388.109 288.859 388.109 288.859C379.219 301.64 369.891 323.515 369.891 323.515C385.724 328.719 393.318 324.167 393.318 324.167C427.802 293.406 467.063 241.635 467.063 241.635C457.516 239.255 449.276 246.187 449.276 246.187Z" fill="#0D1017"/>
<path d="M374.661 199.182L403.729 220.844L378.567 199.182C378.786 199.182 377.484 198.531 374.661 199.182Z" fill="#0D1017"/>
<path d="M424.766 235.792L420.214 237.089C419.125 237.307 418.693 238.391 418.912 239.474L420.214 244.021C420.427 245.104 421.511 245.536 422.599 245.323L427.151 244.021C428.234 243.802 428.672 242.719 428.453 241.635L427.151 237.089C426.719 236.224 425.849 235.573 424.766 235.792Z" fill="#0D1017"/>
<path d="M394.833 245.105L392.234 245.756C391.146 245.969 390.713 247.052 390.932 248.136L391.583 250.735C391.797 251.818 392.885 252.25 393.969 252.037L396.567 251.386C397.656 251.167 398.088 250.089 397.87 249.006L397.219 246.401C396.786 245.323 395.922 244.886 394.833 245.105Z" fill="#0D1017"/>
<path d="M408.713 240.99L405.245 241.854C404.161 242.073 403.729 243.156 403.943 244.24L404.812 247.703C405.031 248.787 406.114 249.219 407.198 249.005L410.667 248.136C411.75 247.922 412.187 246.839 411.969 245.755L411.104 242.287C410.667 241.203 409.583 240.557 408.713 240.99Z" fill="#0D1017"/>
<path d="M349.937 258.318C350.369 258.099 369.89 248.135 396.135 238.391C420.213 229.292 455.13 218.458 483.547 218.458C491.786 218.458 499.161 219.328 505.453 221.057C505.666 221.057 505.666 221.057 505.666 220.844C505.666 220.625 505.666 220.625 505.666 220.411C505.666 220.411 503.932 218.458 499.375 216.51C495.255 214.776 488.317 212.828 477.255 212.828C463.807 212.828 447.755 215.859 429.323 221.708C406.114 229.073 379.218 241.203 349.505 257.453C349.286 257.453 349.286 257.667 349.286 257.885C349.718 258.318 349.718 258.318 349.937 258.318Z" fill="#0D1017"/>
<path d="M290.292 248.568L300.922 243.37L340.177 263.297C340.177 263.297 340.177 263.297 340.396 263.297C340.609 263.297 340.609 263.297 340.609 263.083C340.609 262.865 340.609 262.651 340.396 262.651L300.271 238.172H300.052H299.833L284.219 246.62L284 246.839V247.052L298.969 267.63L299.188 267.849H299.401C299.62 267.849 299.62 267.63 299.62 267.417L290.292 248.568Z" fill="#0D1017"/>
<path d="M301.786 276.297C306.125 276.297 317.406 275.646 327.599 270.229C327.812 270.229 327.812 270.016 327.812 269.797C327.812 269.583 327.599 269.583 327.599 269.583C327.599 269.583 324.776 269.146 320.875 269.146C314.583 269.146 305.906 270.229 299.833 275.646C299.833 275.646 299.62 275.865 299.833 276.078C299.833 276.297 300.052 276.297 300.052 276.297C300.052 276.297 300.703 276.297 301.786 276.297Z" fill="#0D1017"/>
<path d="M372.713 197.88L402.427 193.115C403.729 193.552 426.5 199.396 449.708 214.563H449.927L458.818 213.047C459.036 213.047 459.036 212.828 459.036 212.828C459.036 212.609 459.036 212.609 458.818 212.396C458.818 212.396 451.01 207.411 440.38 202C430.62 197.016 416.307 190.734 403.729 189C402.64 189.219 376.182 192.469 372.495 197.016C372.495 197.234 372.495 197.234 372.495 197.448C372.495 197.667 372.713 197.88 372.713 197.88Z" fill="#0D1017"/>
<path d="M498.729 224.307C498.078 224.094 497.208 223.875 496.125 223.875C493.953 223.875 492.005 224.526 490.052 224.958H489.833C488.531 225.391 487.015 225.823 485.495 226.26C485.281 226.26 485.281 226.26 485.062 226.474C483.76 226.906 482.896 227.125 482.458 227.776C482.245 228.208 482.458 228.427 482.458 228.859C482.458 229.292 483.109 233.188 484.844 234.271C485.062 234.49 485.281 234.49 485.495 234.49C485.932 234.49 486.146 234.708 486.583 234.708C486.797 234.708 487.229 234.708 487.667 234.708C491.568 234.271 495.474 232.974 499.161 231.672C500.026 231.458 500.896 231.026 501.765 230.807C501.979 230.807 502.411 230.589 502.63 230.375C503.062 229.943 503.281 229.292 503.062 228.859C502.849 226.693 500.026 224.74 498.729 224.307Z" fill="#0D1017"/>
<path d="M426.5 272.396C428.02 270.448 429.323 268.714 430.838 266.766C430.838 266.547 430.838 266.547 430.838 266.333L430.619 266.115C366.854 278.677 301.135 284.094 300.484 284.094C300.27 284.094 300.052 284.313 300.27 284.526C300.27 284.745 300.484 284.745 300.703 284.745C351.239 281.276 390.062 277.38 426.5 272.396C426.286 272.396 426.286 272.396 426.5 272.396Z" fill="#0D1017"/>
<path d="M523.672 239.906C522.583 232.755 510.656 228.641 510.005 228.641C509.786 228.641 509.786 228.641 509.786 228.859C509.786 229.073 509.786 229.292 509.786 229.292C514.125 232.542 516.297 235.573 515.859 238.391C515.646 242.073 511.526 244.24 511.307 244.453C496.989 250.734 479.64 257.885 455.349 263.297C455.349 263.297 455.13 263.297 455.13 263.516C453.177 265.901 451.442 268.063 449.708 270.229C449.708 270.448 449.708 270.448 449.708 270.667C449.708 270.88 449.927 270.88 449.927 270.88C508.703 261.568 515.646 252.901 516.297 251.818C521.718 247.484 524.104 243.589 523.672 239.906Z" fill="#0D1017"/>
<path d="M467.494 241.854C467.494 241.636 467.276 241.636 467.276 241.636C465.76 241.203 464.239 240.99 462.724 240.99C455.13 240.99 449.276 245.755 449.057 245.969C445.588 252.469 431.057 271.313 419.562 285.396C404.812 303.589 392.885 317.021 389.843 318.969C386.375 321.136 382.687 321.568 380.302 321.568C377.265 321.568 375.099 320.917 374.88 320.485C375.099 318.969 383.125 300.99 388.547 289.078C388.547 288.86 388.547 288.646 388.328 288.646H388.109C387.896 288.646 387.896 288.646 387.896 288.86C379.218 301.422 369.677 323.302 369.677 323.516V323.735L369.89 323.953C375.099 325.682 379.869 326.552 384.208 326.552C390.494 326.552 393.531 324.818 393.75 324.818C427.802 294.49 467.062 242.719 467.494 242.073V241.854Z" fill="#0D1017"/>
<path d="M379 198.964C379 198.964 378.349 198.531 377.052 198.531C376.401 198.531 375.531 198.75 374.661 198.964C374.448 198.964 374.448 199.182 374.448 199.182C374.448 199.396 374.448 199.396 374.661 199.615L403.729 221.276H403.943C403.943 221.276 404.161 221.276 404.161 221.057C404.38 220.844 404.161 220.625 404.161 220.625L379 198.964Z" fill="#0D1017"/>
<path d="M425.198 235.354C424.984 235.354 424.766 235.354 424.547 235.354L419.995 236.657C418.693 237.089 418.042 238.172 418.474 239.474L419.776 244.021C419.995 245.104 420.864 245.756 421.948 245.756C422.161 245.756 422.38 245.756 422.599 245.756L427.151 244.453C428.453 244.021 429.104 242.938 428.672 241.636L427.37 237.089C427.151 236.006 426.286 235.354 425.198 235.354Z" fill="#0D1017"/>
<path d="M395.271 244.672C395.052 244.672 394.833 244.672 394.62 244.672L392.015 245.323C391.364 245.536 390.932 245.755 390.713 246.401C390.495 246.839 390.281 247.484 390.495 248.135L391.146 250.734C391.364 251.818 392.234 252.469 393.317 252.469C393.531 252.469 393.75 252.469 393.969 252.469L396.567 251.818C397.219 251.604 397.656 251.385 397.87 250.734C398.088 250.089 398.307 249.651 398.088 249.005L397.437 246.401C397.219 245.323 396.354 244.672 395.271 244.672Z" fill="#0D1017"/>
<path d="M409.151 240.558C408.932 240.558 408.713 240.558 408.5 240.558L405.031 241.422C403.729 241.854 403.078 242.938 403.51 244.24L404.38 247.703C404.593 248.787 405.463 249.438 406.546 249.438C406.765 249.438 406.979 249.438 407.197 249.438L410.666 248.568C411.317 248.354 411.75 248.136 411.968 247.485C412.187 247.052 412.401 246.401 412.187 245.756L411.317 242.287C411.104 241.203 410.234 240.558 409.151 240.558Z" fill="#0D1017"/>
<path d="M382.474 249.438C382.255 249.438 382.036 249.438 381.823 249.438L380.302 249.87C379 250.302 378.349 251.385 378.786 252.688L379.218 254.203C379.437 255.286 380.302 255.932 381.385 255.932C381.604 255.932 381.823 255.932 382.036 255.932L383.557 255.5C384.859 255.068 385.51 253.984 385.073 252.688L384.64 251.167C384.421 250.089 383.557 249.438 382.474 249.438Z" fill="#0D1017"/>
<path d="M382.037 249.651L380.521 250.089C379.438 250.302 379 251.386 379.219 252.469L379.651 253.985C379.87 255.068 380.953 255.5 382.037 255.287L383.557 254.849C384.641 254.636 385.073 253.552 384.859 252.469L384.422 250.953C383.99 250.089 382.906 249.438 382.037 249.651Z" fill="#0D1017"/>
<path d="M505.667 220.844C505.667 220.844 476.172 188.568 349.938 257.885C349.938 257.885 452.094 206.114 505.667 220.844Z" fill="#0D1017"/>
<path d="M300.922 242.938L340.396 263.083L338.443 262L300.052 238.391L284.438 246.839L299.401 267.417L289.859 248.568L300.922 242.938Z" fill="#0D1017"/>
<path d="M327.38 270.016C327.38 270.016 310.031 267.198 300.052 276.078C300.052 275.864 314.583 276.948 327.38 270.016Z" fill="#0D1017"/>
<path d="M449.927 214.344L458.817 212.828C458.817 212.828 428.021 193.115 403.942 189.433C403.942 189.433 376.401 192.901 372.927 197.448L402.64 192.683C402.64 192.683 425.635 198.532 449.927 214.344Z" fill="#0D1017"/>
<path d="M490.052 225.391C488.531 225.823 487.229 226.261 485.932 226.693C485.281 226.906 483.328 227.344 483.109 227.99C483.109 228.209 483.109 228.641 483.109 228.86C483.328 230.375 483.979 233.188 485.281 234.058C485.495 234.058 485.495 234.271 485.714 234.271C486.365 234.49 487.016 234.49 487.88 234.271C492.656 233.839 497.427 231.891 501.979 230.375C502.198 230.375 502.63 230.156 502.849 229.943C504.583 228.209 500.245 224.959 498.943 224.526C495.906 223.662 492.656 224.74 490.052 225.391Z" fill="#0D1017"/>
<path d="M430.406 266.547C365.989 279.328 300.271 284.526 300.271 284.526C357.531 280.63 395.052 276.51 426.067 272.182C427.583 270.229 429.104 268.281 430.406 266.547Z" fill="#0D1017"/>
<path d="M509.786 228.859C523.021 238.604 511.307 244.672 511.307 244.672C495.041 251.818 478.557 258.318 455.349 263.516C453.614 265.682 451.88 267.849 449.927 270.229C511.739 260.484 516.078 251.385 516.078 251.385C535.599 237.307 509.786 228.859 509.786 228.859Z" fill="#0D1017"/>
<path d="M449.276 246.187C442.984 258.099 396.786 315.068 390.063 319.187C383.339 323.302 374.661 321.568 374.448 320.484C374.229 319.401 388.109 288.859 388.109 288.859C379.219 301.64 369.891 323.515 369.891 323.515C385.724 328.719 393.318 324.167 393.318 324.167C427.802 293.406 467.063 241.635 467.063 241.635C457.516 239.255 449.276 246.187 449.276 246.187Z" fill="#0D1017"/>
<path d="M374.661 199.182L403.729 220.844L378.567 199.182C378.786 199.182 377.484 198.531 374.661 199.182Z" fill="#0D1017"/>
<path d="M424.766 235.792L420.214 237.089C419.125 237.307 418.693 238.391 418.912 239.474L420.214 244.021C420.427 245.104 421.511 245.536 422.599 245.323L427.151 244.021C428.234 243.802 428.672 242.719 428.453 241.635L427.151 237.089C426.719 236.224 425.849 235.573 424.766 235.792Z" fill="#0D1017"/>
<path d="M394.833 245.105L392.234 245.756C391.146 245.969 390.713 247.052 390.932 248.136L391.583 250.735C391.797 251.818 392.885 252.25 393.969 252.037L396.567 251.386C397.656 251.167 398.088 250.089 397.87 249.006L397.219 246.401C396.786 245.323 395.922 244.886 394.833 245.105Z" fill="#0D1017"/>
<path d="M408.713 240.99L405.245 241.854C404.161 242.073 403.729 243.156 403.943 244.24L404.812 247.703C405.031 248.787 406.114 249.219 407.198 249.005L410.667 248.136C411.75 247.922 412.187 246.839 411.969 245.755L411.104 242.287C410.667 241.203 409.583 240.557 408.713 240.99Z" fill="#0D1017"/>
<path d="M382.037 249.651L380.521 250.089C379.438 250.302 379 251.386 379.219 252.469L379.651 253.985C379.87 255.068 380.953 255.5 382.037 255.287L383.557 254.849C384.641 254.636 385.073 253.552 384.859 252.469L384.422 250.953C383.99 250.089 382.906 249.438 382.037 249.651Z" fill="#0D1017"/>
</svg>
