<svg width="57" height="56" viewBox="0 0 57 56" fill="none" xmlns="http://www.w3.org/2000/svg">
<g filter="url(#filter0_d_476_1559)">
<rect x="6" y="2" width="45" height="45" rx="12" fill="#EAB308"/>
</g>
<path d="M23.5781 14.6682H27.6211C27.6428 14.6682 27.6639 14.6728 27.6836 14.6809L27.7373 14.7161C27.7681 14.7468 27.7852 14.7888 27.7852 14.8323V20.9846C27.7852 21.477 27.9562 21.9519 28.2656 22.3293L28.4062 22.4846C28.804 22.8824 29.3437 23.1057 29.9062 23.1057H36.0586C36.1021 23.1057 36.144 23.1228 36.1748 23.1536C36.2056 23.1843 36.2227 23.2263 36.2227 23.2698V31.5315C36.2227 32.1817 35.9965 32.8084 35.5879 33.3069L35.4023 33.512C34.8771 34.0372 34.1647 34.3323 33.4219 34.3323H23.5781C22.928 34.3323 22.3012 34.1061 21.8027 33.6975L21.5977 33.512C21.0724 32.9867 20.7773 32.2743 20.7773 31.5315V17.469C20.7773 16.8188 21.0035 16.1921 21.4121 15.6936L21.5977 15.4885C22.1229 14.9633 22.8353 14.6682 23.5781 14.6682ZM24.9844 28.7073C24.8422 28.7073 24.7045 28.7497 24.5879 28.8274L24.4785 28.9163C24.3445 29.0503 24.2695 29.2325 24.2695 29.4221C24.2695 29.5643 24.3119 29.702 24.3896 29.8186L24.4785 29.928C24.6126 30.062 24.7948 30.137 24.9844 30.137H32.0156C32.2052 30.137 32.3874 30.062 32.5215 29.928C32.6555 29.7939 32.7305 29.6117 32.7305 29.4221C32.7305 29.2325 32.6555 29.0503 32.5215 28.9163C32.3874 28.7822 32.2052 28.7073 32.0156 28.7073H24.9844ZM24.9844 25.1917C24.8422 25.1917 24.7045 25.2341 24.5879 25.3118L24.4785 25.4006C24.3445 25.5347 24.2695 25.7169 24.2695 25.9065C24.2695 26.0487 24.3119 26.1864 24.3896 26.303L24.4785 26.4124C24.6126 26.5464 24.7948 26.6213 24.9844 26.6213H32.0156C32.2052 26.6213 32.3874 26.5464 32.5215 26.4124C32.6555 26.2783 32.7305 26.0961 32.7305 25.9065C32.7305 25.7169 32.6555 25.5347 32.5215 25.4006C32.3874 25.2666 32.2052 25.1917 32.0156 25.1917H24.9844Z" fill="white" stroke="#EAB308" stroke-width="0.0234375"/>
<path d="M29.3055 15.2063L29.3446 15.2278L35.6639 21.5471L35.6854 21.5862C35.6883 21.6009 35.6863 21.6163 35.6805 21.6301L35.6532 21.6643C35.6407 21.6727 35.6252 21.6769 35.6102 21.677H29.9061C29.7228 21.677 29.5465 21.6045 29.4169 21.4749C29.2872 21.3452 29.2147 21.169 29.2147 20.9856V15.2815L29.2274 15.2395L29.2616 15.2112C29.2754 15.2055 29.2909 15.2034 29.3055 15.2063Z" fill="white" stroke="#EAB308" stroke-width="0.0234375"/>
<defs>
<filter id="filter0_d_476_1559" x="0.5" y="-2.38419e-07" width="56" height="56" filterUnits="userSpaceOnUse" color-interpolation-filters="sRGB">
<feFlood flood-opacity="0" result="BackgroundImageFix"/>
<feColorMatrix in="SourceAlpha" type="matrix" values="0 0 0 0 0 0 0 0 0 0 0 0 0 0 0 0 0 0 127 0" result="hardAlpha"/>
<feOffset dy="3.5"/>
<feGaussianBlur stdDeviation="2.75"/>
<feColorMatrix type="matrix" values="0 0 0 0 0 0 0 0 0 0 0 0 0 0 0 0 0 0 0.02 0"/>
<feBlend mode="normal" in2="BackgroundImageFix" result="effect1_dropShadow_476_1559"/>
<feBlend mode="normal" in="SourceGraphic" in2="effect1_dropShadow_476_1559" result="shape"/>
</filter>
</defs>
</svg>
