<svg width="57" height="56" viewBox="0 0 57 56" fill="none" xmlns="http://www.w3.org/2000/svg">
<g filter="url(#filter0_d_476_1575)">
<rect x="6" y="2" width="45" height="45" rx="12" fill="#EAB308"/>
</g>
<path d="M21.4467 17.8182H35.5092C35.6734 17.8181 35.8375 17.8285 36.0005 17.8494C35.9453 17.4617 35.8121 17.0892 35.609 16.7543C35.4059 16.4195 35.1371 16.1292 34.8188 15.9011C34.5006 15.6729 34.1394 15.5116 33.757 15.4268C33.3747 15.342 32.9792 15.3356 32.5943 15.4078L21.0292 17.3822H21.016C20.2901 17.521 19.6445 17.9318 19.2112 18.5305C19.864 18.0662 20.6455 17.8171 21.4467 17.8182Z" fill="white"/>
<path d="M35.5093 18.8749H21.4468C20.7011 18.8757 19.9862 19.1723 19.4589 19.6995C18.9317 20.2268 18.6351 20.9417 18.6343 21.6874V30.1249C18.6351 30.8705 18.9317 31.5854 19.4589 32.1127C19.9862 32.64 20.7011 32.9366 21.4468 32.9374H35.5093C36.2549 32.9366 36.9698 32.64 37.4971 32.1127C38.0244 31.5854 38.321 30.8705 38.3218 30.1249V21.6874C38.321 20.9417 38.0244 20.2268 37.4971 19.6995C36.9698 19.1723 36.2549 18.8757 35.5093 18.8749ZM33.4219 27.3124C33.1437 27.3124 32.8719 27.2299 32.6406 27.0754C32.4093 26.9209 32.2291 26.7012 32.1227 26.4443C32.0162 26.1873 31.9884 25.9046 32.0426 25.6318C32.0969 25.359 32.2308 25.1084 32.4275 24.9118C32.6242 24.7151 32.8747 24.5812 33.1475 24.5269C33.4203 24.4726 33.7031 24.5005 33.96 24.6069C34.217 24.7134 34.4366 24.8936 34.5911 25.1249C34.7456 25.3561 34.8281 25.628 34.8281 25.9061C34.8281 26.2791 34.68 26.6368 34.4162 26.9005C34.1525 27.1642 33.7948 27.3124 33.4219 27.3124Z" fill="white"/>
<path d="M18.6562 24.6514V20.2788C18.6562 19.3265 19.1836 17.73 21.0139 17.3841C22.5674 17.0928 24.1055 17.0928 24.1055 17.0928C24.1055 17.0928 25.1162 17.7959 24.2812 17.7959C23.4463 17.7959 23.4683 18.8726 24.2812 18.8726C25.0942 18.8726 24.2812 19.9053 24.2812 19.9053L21.0073 23.6187L18.6562 24.6514Z" fill="white"/>
<defs>
<filter id="filter0_d_476_1575" x="0.5" y="-2.38419e-07" width="56" height="56" filterUnits="userSpaceOnUse" color-interpolation-filters="sRGB">
<feFlood flood-opacity="0" result="BackgroundImageFix"/>
<feColorMatrix in="SourceAlpha" type="matrix" values="0 0 0 0 0 0 0 0 0 0 0 0 0 0 0 0 0 0 127 0" result="hardAlpha"/>
<feOffset dy="3.5"/>
<feGaussianBlur stdDeviation="2.75"/>
<feColorMatrix type="matrix" values="0 0 0 0 0 0 0 0 0 0 0 0 0 0 0 0 0 0 0.02 0"/>
<feBlend mode="normal" in2="BackgroundImageFix" result="effect1_dropShadow_476_1575"/>
<feBlend mode="normal" in="SourceGraphic" in2="effect1_dropShadow_476_1575" result="shape"/>
</filter>
</defs>
</svg>
