<svg width="20" height="20" viewBox="0 0 20 20" fill="none" xmlns="http://www.w3.org/2000/svg">
<path d="M18.3303 6.30963C18.3189 4.51331 17.5179 3.15028 15.9682 2.24295C15.2863 1.8435 14.5326 1.67067 13.7423 1.67027C11.2473 1.66823 8.7524 1.66211 6.25744 1.6719C4.22675 1.67964 2.5303 2.91917 1.88791 4.85489C1.79335 5.14021 1.7587 5.44591 1.69675 5.74224C1.68574 5.79482 1.67677 5.84781 1.66699 5.90039V14.1022C1.71183 14.3517 1.73629 14.6068 1.80436 14.8498C2.3212 16.6946 3.51997 17.8277 5.38884 18.25C5.55636 18.2879 5.72878 18.3059 5.89875 18.3332H14.1022C14.3521 18.2883 14.6072 18.2639 14.8506 18.1958C16.6934 17.6798 17.8298 16.4831 18.2455 14.6162C18.3124 14.3174 18.3295 14.0028 18.3303 13.6954C18.3368 11.2335 18.3458 8.77157 18.3303 6.30963ZM10.0078 14.5685C7.4986 14.5828 5.43123 12.5187 5.43245 10.0005C5.43367 7.48476 7.46722 5.44836 9.99315 5.43409C12.5024 5.41983 14.5697 7.48353 14.5685 10.0017C14.5673 12.5175 12.5338 14.5539 10.0078 14.5685ZM14.8441 6.54645C14.09 6.544 13.4558 5.90895 13.4562 5.15651C13.4562 4.40163 14.0884 3.77229 14.8461 3.7731C15.6079 3.77351 16.232 4.39837 16.2299 5.15896C16.2283 5.91711 15.5973 6.54889 14.8441 6.54645Z" fill="white"/>
<path d="M1.66699 14.1025C1.71183 14.352 1.73629 14.6072 1.80436 14.8501C2.3212 16.6949 3.51997 17.8281 5.38884 18.2503C5.55636 18.2882 5.72878 18.3062 5.89875 18.3335C4.48803 18.3335 3.07731 18.3335 1.66699 18.3335C1.66699 16.9232 1.66699 15.5129 1.66699 14.1025Z" fill="white"/>
<path d="M13.5843 10.0091C13.5778 11.9909 11.9604 13.5973 9.98519 13.5842C8.00667 13.5712 6.41049 11.9652 6.41701 9.99365C6.42353 8.01228 8.04132 6.40509 10.0166 6.41854C11.9951 6.43158 13.5909 8.03755 13.5843 10.0091Z" fill="white"/>
<path d="M15.245 5.15518C15.2458 5.37447 15.0604 5.56116 14.8435 5.55993C14.6287 5.55871 14.4392 5.3655 14.4424 5.1511C14.4461 4.94037 14.6271 4.76021 14.839 4.75736C15.0612 4.7545 15.2442 4.93385 15.245 5.15518Z" fill="white"/>
</svg>
