<svg width="56" height="56" viewBox="0 0 56 56" fill="none" xmlns="http://www.w3.org/2000/svg">
<rect width="56" height="56" rx="14" fill="#EAB308"/>
<path d="M40 28C40 34.6274 34.6274 40 28 40C21.3726 40 16 34.6274 16 28C16 21.3726 21.3726 16 28 16M34.6667 28C34.6667 31.6819 31.6819 34.6667 28 34.6667C24.3181 34.6667 21.3333 31.6819 21.3333 28C21.3333 24.3181 24.3181 21.3333 28 21.3333M31.6772 24.4688L36.9558 25.0232L39.8172 21.0172L36.3835 19.8727L35.239 16.439L31.233 19.3004L31.6772 24.4688ZM31.6772 24.4688L28 27.9999" stroke="white" stroke-width="2" stroke-linecap="round" stroke-linejoin="round"/>
</svg>
