<svg width="20" height="20" viewBox="0 0 20 20" fill="none" xmlns="http://www.w3.org/2000/svg">
<path d="M16.9864 16.9613C15.1309 14.2539 13.2738 11.5473 11.4174 8.84044C11.3932 8.80518 11.3709 8.76847 11.3407 8.72163C11.6659 8.34258 11.9894 7.96515 12.3133 7.58791C13.9966 5.62737 15.6801 3.66665 17.3634 1.70593C17.3739 1.69363 17.3822 1.67971 17.3916 1.6665H15.9621C14.2149 3.70101 12.4676 5.7357 10.6926 7.80257C10.6713 7.76405 10.6561 7.73096 10.6358 7.70148C9.27279 5.71327 7.9094 3.72542 6.54637 1.73721C6.53136 1.71515 6.52069 1.69019 6.50785 1.6665H1.66699C1.70895 1.73522 1.74765 1.80612 1.79304 1.87231C3.83894 4.85661 5.88538 7.84055 7.93182 10.8247C7.95316 10.8558 7.9736 10.8876 8.00344 10.9326C7.83724 11.1276 7.67014 11.3245 7.50177 11.5206C5.59928 13.7361 3.69661 15.9514 1.79431 18.1672C1.7491 18.22 1.70931 18.2777 1.66699 18.3332H3.09657C3.744 17.5756 4.39015 16.817 5.03885 16.0605C6.19209 14.7156 7.34697 13.3717 8.50112 12.0277C8.54326 11.9785 8.58666 11.9305 8.63694 11.8732C8.66949 11.9126 8.69842 11.943 8.72193 11.9772C10.1528 14.0632 11.5833 16.1495 13.0136 18.2361C13.0347 18.267 13.0517 18.3008 13.0707 18.3332H17.9114C17.6032 17.8758 17.2981 17.4163 16.9864 16.9613ZM15.768 17.2971C15.151 17.2977 14.5339 17.2944 13.9169 17.3002C13.802 17.3011 13.7313 17.2684 13.6642 17.1723C10.3501 12.4176 7.0332 7.66441 3.71687 2.91108C3.68631 2.86731 3.65846 2.82156 3.60963 2.74669C4.21492 2.74669 4.78856 2.76948 5.3593 2.73801C5.69694 2.71938 5.88303 2.8382 6.07418 3.11344C9.31257 7.77581 12.5638 12.4293 15.8121 17.0848C15.8543 17.1452 15.895 17.2065 15.9503 17.2875C15.8709 17.2919 15.8196 17.2969 15.768 17.2971Z" fill="white"/>
</svg>
