<svg width="20" height="20" viewBox="0 0 20 20" fill="none" xmlns="http://www.w3.org/2000/svg">
<path d="M18.8681 5.72938C18.6677 4.62192 17.9908 3.91099 16.9326 3.71745C16.4959 3.63728 16.0513 3.57887 15.6078 3.55883C13.727 3.47379 11.8453 3.40708 9.96395 3.3335C9.96337 3.35297 9.9628 3.37244 9.96223 3.3919C9.52961 3.3919 9.0967 3.38561 8.66436 3.39305C6.87059 3.42311 5.07654 3.44287 3.29222 3.66562C2.18246 3.80391 1.41371 4.46387 1.18265 5.56103C1.05352 6.17375 0.983089 6.80192 0.932125 7.42695C0.823039 8.76375 0.796125 10.1049 0.891182 11.4437C0.950163 12.2717 1.02575 13.1023 1.16347 13.9203C1.34413 14.9917 2.08254 15.7 3.12215 15.8544C3.73773 15.9457 4.35932 16.0236 4.98063 16.0439C6.88777 16.1057 8.79607 16.163 10.7041 16.1725C12.6061 16.1822 14.5089 16.137 16.4035 15.938C16.8919 15.8864 17.3732 15.8085 17.8001 15.5351C18.5062 15.083 18.8274 14.4036 18.9044 13.6056C19.0084 12.5259 19.1137 11.4437 19.1492 10.3605C19.2005 8.81071 19.1449 7.26146 18.8681 5.72938ZM8.18679 12.5185V7.04558C9.77526 7.95864 11.3471 8.86225 12.9468 9.78189C11.3494 10.7004 9.77784 11.6037 8.18679 12.5185Z" fill="white"/>
</svg>
